<svg id="lux_newsletter" xmlns="http://www.w3.org/2000/svg" viewBox="0 0 16 16">
    <path id="svg_1" d="m0,0l70.87,0l0,70.87l-70.87,0l0,-70.87z" fill="#4de7ff"/>
    <path id="svg_2" fill="#ffffff" d="m7.952381,9.952381l-1.732,-1.516l-4.952,4.245c0.18,0.167 0.423,0.271 0.691,0.271l11.986,0c0.267,0 0.509,-0.104 0.688,-0.271l-4.949,-4.245l-1.732,1.516z"/>
    <path id="svg_3" fill="#ffffff" d="m14.695905,3.223381c-0.18,-0.168 -0.422,-0.271 -0.691,-0.271l-11.986,0c-0.267,0 -0.509,0.104 -0.689,0.273l6.682,5.727l6.684,-5.729z"/>
    <polygon id="svg_4" fill="#ffffff" points="1,3.830380905419588 1,12.138377416878939 5.833000183105469,8.031379450112581 "/>
    <polygon id="svg_5" fill="#ffffff" points="10.166999816894531,8.031379450112581 15,12.138377416878939 15,3.8273811228573322 "/>
</svg>
