<?xml version="1.0" encoding="utf-8"?>
<svg version="1.1" id="Ebene_1" xmlns="http://www.w3.org/2000/svg" xmlns:xlink="http://www.w3.org/1999/xlink" x="0px" y="0px" viewBox="0 0 70.9 70.9" style="enable-background:new 0 0 70.9 70.9;" xml:space="preserve">
	<path class="st0" d="M27.4,2.7c0,0-2.4,6.7,0.9,9.3s4.8,7.1,4.3,9.1c0,0,12.7-0.5,16.4,7.7c0,0-0.2,1.3,7.7,4.7c0,0,2.7,0.9-2.4,6.9 c0,0,0.8,1.7-2.8,2.9c0,0,0.8,4.4-3.9,3.6c-4.7-0.8-11.1-3.8-6.9,3.3c0,0,7.9,7.8,6.4,14.6c0,0-4.9-12.4-20.5-14.1 c0,0,14,3.2,19.1,17.4c0,0-2.8-5.7-15.2-9.1c0,0,3.6,1.3,4.9,5.4c0,0-1-1.9-12.4-5.2s-9.6-14.8-9-17.1c0.9-3.5,3.5-12.4,8.9-17.2 c0,0-3.1-2.7,2.1-13.5C24.9,11.5,24.1,6.7,27.4,2.7z" fill="#ffffff"/>
</svg>
