<svg xmlns="http://www.w3.org/2000/svg" width="15" height="15">
    <g fill="#444444">
        <path d="M13.045 2.1916H1.9869c-.1815 0-.3515.047-.5052.1242l6.008 6.315 1.3466-1.3602.0002-.0002v-.0001l4.7139-4.9543c-.1538-.0774-.3238-.1244-.5054-.1244ZM14.1061 2.9002 9.6702 7.5625l4.4358 4.6624c.0735-.1616.1182-.3402.1182-.531V3.431c0-.1907-.0445-.3693-.118-.5309zM.9259 2.9c-.0736.1616-.1182.3403-.1182.531v8.2629c0 .1906.0446.3693.118.5308l4.436-4.6622Z"/>
        <path d="M9.1144 8.1467 7.7676 9.5071a.3823.3823 0 0 1-.2779.121.3823.3823 0 0 1-.2778-.121L5.9175 8.1467l-4.436 4.6623c.1538.0773.3238.1243.5054.1243h11.058c.1816 0 .3515-.047.5053-.1242z"/>
    </g>
</svg>
